<?xml version="1.0" encoding="UTF-8"?>
<svg width="69px" height="34px" viewBox="0 0 69 34" version="1.1" xmlns="http://www.w3.org/2000/svg" xmlns:xlink="http://www.w3.org/1999/xlink">
    <!-- Generator: Sketch 58 (84663) - https://sketch.com -->
    <title>okd</title>
    <desc>Created with Sketch.</desc>
    <g id="Page-1" stroke="none" stroke-width="1" fill="none" fill-rule="evenodd">
        <g id="Attach-disk-selected-add-disk-modal-details-required2" transform="translate(-77.000000, -22.000000)" fill-rule="nonzero">
            <g id="1.-Window-/-1.-Masthead" transform="translate(1.000000, 1.000000)">
                <g id="Logo" transform="translate(76.000000, 21.000000)">
                    <g id="okd" transform="translate(0.000000, 0.913043)">
                        <path d="M65.1130435,0 L65.1130435,14.85 L65.1130435,21.0375 C65.1130435,23.30625 64.4869565,25.1625 63.026087,26.8125 C61.5652174,28.4625 59.6869565,29.08125 57.6,29.08125 C55.5130435,29.08125 53.8434783,28.4625 52.3826087,27.01875 C50.9217391,25.575 50.2956522,23.71875 50.2956522,21.8625 C50.2956522,19.8 50.9217391,17.94375 52.5913043,16.5 C54.0521739,15.05625 56.1391304,14.23125 58.226087,14.23125 C58.4347826,14.23125 58.6434783,14.23125 58.8521739,14.23125 C59.0608696,14.23125 59.4782609,14.23125 60.1043478,14.4375 C60.7304348,14.64375 61.5652174,14.85 62.4,15.46875 L62.4,11.1375 C61.3565217,10.725 60.5217391,10.51875 59.8956522,10.51875 C59.4782609,10.3125 58.8521739,10.3125 57.8086957,10.3125 C54.2608696,10.3125 51.5478261,11.34375 49.2521739,13.40625 C47.1652174,15.46875 45.9130435,18.15 45.9130435,21.65625 C45.9130435,25.1625 47.1652174,27.84375 49.2521739,29.90625 C51.3391304,31.96875 54.2608696,33 57.6,33 C60.7304348,33 63.026087,32.38125 64.9043478,30.73125 L64.9043478,33 L68.8695652,33 L68.8695652,21.0375 L68.8695652,14.85 L68.8695652,0 L65.1130435,0 Z M30.1304348,0 L30.1304348,33 L25.826087,33 L25.826087,0 L30.1304348,0 Z M44.4782609,10.0434783 L44.0617111,11.9240186 C43.2286115,15.4761503 41.1458626,18.4014352 37.6051893,20.2819755 L37.6051893,20.2819755 L38.8548387,20.9088223 C39.2713885,21.1177712 39.8962132,21.5356691 40.5210379,22.1625158 C41.1458626,22.9983115 41.7706872,23.8341072 42.8120617,25.5056986 C43.6451613,27.17729 44.0617111,28.8488814 44.0617111,30.5204728 L44.0617111,30.5204728 L43.8534362,30.5204728 L43.8534362,31.5652174 L39.8962132,31.5652174 L39.6879383,29.893626 C39.4796634,27.3862389 38.230014,25.5056986 36.5638149,24.0430561 C35.1058906,23.2072604 33.4396914,22.3714648 31.5652174,22.1625158 L31.5652174,22.1625158 L31.5652174,18.4014352 C33.2314165,18.1924863 34.8976157,17.7745884 36.35554,16.5208949 C38.230014,15.2672014 39.2713885,13.386661 39.6879383,11.5061207 L39.6879383,11.5061207 L39.8962132,10.0434783 L44.4782609,10.0434783 Z" id="kd" fill="#FFFFFF"></path>
                        <path d="M11.4782609,10.0434783 C14.6086957,10.0434783 17.3217391,11.2843713 19.6173913,13.3525264 C21.9130435,15.4206816 22.9565217,18.3160987 22.9565217,21.4183314 C22.9565217,24.520564 21.7043478,27.2091657 19.6173913,29.6909518 C17.3217391,31.7591069 14.6086957,33 11.4782609,33 C8.34782609,33 5.84347826,31.7591069 3.33913043,29.6909518 C1.25217391,27.2091657 0,24.3137485 0,21.2115159 C0,18.1092832 1.25217391,15.4206816 3.33913043,13.1457109 C5.42608696,10.8707403 8.55652174,10.0434783 11.4782609,10.0434783 Z M4.17391304,21.4183314 C4.17391304,23.4864865 4.8,25.1410106 6.26086957,26.7955347 C7.72173913,28.2432432 9.39130435,29.0705053 11.4782609,29.0705053 C13.3565217,29.0705053 15.2347826,28.4500588 16.6956522,26.7955347 C18.1565217,25.3478261 18.7826087,23.4864865 18.7826087,21.4183314 C18.7826087,19.3501763 18.1565217,17.4888367 16.6956522,16.0411281 C15.4434783,14.386604 13.773913,13.7661575 11.4782609,13.7661575 C9.6,13.7661575 7.93043478,14.386604 6.46956522,16.0411281 C5.00869565,17.4888367 4.17391304,19.3501763 4.17391304,21.4183314 Z" id="o" fill="#F22B29"></path>
                    </g>
                </g>
            </g>
        </g>
    </g>
</svg>